<svg id="Layer_1" data-name="Layer 1" xmlns="http://www.w3.org/2000/svg" viewBox="0 0 512 512"><defs><style>.cls-1{fill:#b4e1fa;}.cls-2{fill:#707487;}.cls-3{fill:#5b5d6e;}.cls-4{fill:#ffd782;}.cls-5{fill:#96bf0f;}.cls-6{fill:#464655;}.cls-7{fill:#c7cfe2;}.cls-8{fill:#afb9d2;}.cls-9{fill:#690;}.cls-10{fill:#959cb3;}</style></defs><title>Artboard 1</title><polygon class="cls-1" points="441.38 220.69 344.28 220.69 344.28 132.41 423.72 132.41 441.38 220.69"/><path class="cls-2" d="M17.66,370.76H494.35a8.83,8.83,0,0,0,8.83-8.83V300.14H8.83v61.79A8.83,8.83,0,0,0,17.66,370.76Z"/><polygon class="cls-3" points="344.28 300.14 344.28 158.9 308.97 158.9 308.97 300.14 8.83 300.14 8.83 335.45 503.17 335.45 503.17 300.14 344.28 300.14"/><path class="cls-4" d="M8.83,79.45H309a8.83,8.83,0,0,1,8.83,8.83V300.14A8.83,8.83,0,0,1,309,309H8.83A8.83,8.83,0,0,1,0,300.14V88.28A8.83,8.83,0,0,1,8.83,79.45Z"/><path class="cls-5" d="M490.37,225.86l-41.22-11.78-12.79-70.34a35.3,35.3,0,0,0-34.74-29H344.28a8.82,8.82,0,0,0-8.83,8.83v158.9H503.17V242.84A17.66,17.66,0,0,0,490.37,225.86Zm-119.61-14a17.65,17.65,0,0,1-17.65-17.65V150.07a8.83,8.83,0,0,1,8.83-8.83H410.7a8.83,8.83,0,0,1,8.69,7.26l10.33,57.29a5.15,5.15,0,0,1-5.07,6.07H370.76Z"/><circle class="cls-6" cx="414.9" cy="379.59" r="52.97"/><circle class="cls-7" cx="414.9" cy="379.59" r="35.31"/><circle class="cls-8" cx="414.9" cy="379.59" r="13.24"/><circle class="cls-6" cx="88.28" cy="379.59" r="52.97"/><circle class="cls-7" cx="88.28" cy="379.59" r="35.31"/><circle class="cls-8" cx="88.28" cy="379.59" r="13.24"/><path class="cls-9" d="M344.28,361.93h3.37a8.83,8.83,0,0,0,7.89-4.88l19.16-38.33A17.65,17.65,0,0,1,390.5,309h48.8a17.65,17.65,0,0,1,15.79,9.76l19.16,38.33a8.83,8.83,0,0,0,7.89,4.88h21A8.83,8.83,0,0,0,512,353.1V291.31a17.65,17.65,0,0,0-17.65-17.65H335.45V353.1A8.83,8.83,0,0,0,344.28,361.93Z"/><path class="cls-8" d="M309,388.41H220.69a8.83,8.83,0,0,1-8.83-8.83V344.28a8.83,8.83,0,0,1,8.83-8.83H309a8.83,8.83,0,0,1,8.83,8.83v35.31A8.83,8.83,0,0,1,309,388.41Z"/><path class="cls-10" d="M247.17,353.1h0a8.83,8.83,0,0,0-8.83,8.83v26.48H256V361.93A8.83,8.83,0,0,0,247.17,353.1Z"/><path class="cls-10" d="M282.48,353.1h0a8.83,8.83,0,0,0-8.83,8.83v26.48h17.65V361.93A8.83,8.83,0,0,0,282.48,353.1Z"/><path class="cls-5" d="M291.31,291.31H26.48a8.83,8.83,0,0,1-8.83-8.83h0a8.83,8.83,0,0,1,8.83-8.83H291.31a8.83,8.83,0,0,1,8.83,8.83h0A8.83,8.83,0,0,1,291.31,291.31Z"/></svg>