<?xml version="1.0" encoding="utf-8"?>
<!-- Generator: Adobe Illustrator 21.0.0, SVG Export Plug-In . SVG Version: 6.00 Build 0)  -->
<svg version="1.1" id="Layer_1" xmlns="http://www.w3.org/2000/svg" xmlns:xlink="http://www.w3.org/1999/xlink" x="0px" y="0px"
	 viewBox="0 0 400 380" style="enable-background:new 0 0 400 380;" xml:space="preserve">
<style type="text/css">
	.st0{fill:#3D3D3B;}
	.st1{fill:#7A7674;}
	.st2{fill:#181818;}
	.st3{fill:#524E4D;}
	.st4{fill:#566E7F;}
	.st5{fill:#ED2C39;}
	.st6{fill:#B1C3D0;}
	.st7{fill:#35495C;}
	.st8{fill:#CB202C;}
	.st9{fill:#8EADBE;}
</style>
<title>tslint</title>
<g>
	
		<rect x="94.5" y="146.4" transform="matrix(5.759587e-03 -1 1 5.759587e-03 -41.954 260.4877)" class="st0" width="30.9" height="9.8"/>
	<path class="st0" d="M173.6,84.7v37.6h-127V84.7h-9.8v42.5c0,2.7,2.2,4.9,4.9,4.9l0,0h136.8c2.7,0,4.9-2.2,4.9-4.9V84.7H173.6z"/>
	<path class="st1" d="M110.1,13.9c-21.7,0-39.2,17.6-39.2,39.2v18.2c0,21.7,11,29.5,39.2,29.5s39.2-7.9,39.2-29.5V53.1
		C149.3,31.5,131.8,13.9,110.1,13.9L110.1,13.9z"/>
	<path class="st1" d="M159.4,127.2c0,7.5-6.1,13.6-13.6,13.6l0,0H74.3c-7.5,0-13.6-6.1-13.6-13.6c0-7.5,6.1-13.6,13.6-13.6h71.5
		C153.4,113.6,159.4,119.7,159.4,127.2C159.4,127.2,159.4,127.2,159.4,127.2z"/>
	<path class="st2" d="M46.9,74.3H36.5c-3.2,0-5.8,2.6-5.8,5.8v9.5h22v-9.4C52.7,76.9,50.1,74.3,46.9,74.3z"/>
	<path class="st2" d="M183.7,74.3h-10.4c-3.2,0-5.8,2.6-5.8,5.8v9.5h22v-9.4C189.5,76.9,186.9,74.3,183.7,74.3
		C183.7,74.3,183.7,74.3,183.7,74.3z"/>
	<rect x="102.5" y="161.9" class="st2" width="15.2" height="26.1"/>
	<path class="st0" d="M156.8,183.2H63.4c-2.7,0-4.9,2.2-4.9,4.9v18.3c-0.1,2.7,1.9,5,4.7,5.1c2.7,0.1,5-1.9,5.1-4.7
		c0-0.2,0-0.3,0-0.5V193h37v13.4h9.8V193h37v13.4c-0.1,2.7,1.9,5,4.7,5.1c2.7,0.1,5-1.9,5.1-4.7c0-0.2,0-0.3,0-0.5v-18.3
		C161.7,185.4,159.5,183.2,156.8,183.2z"/>
	<path class="st3" d="M131,58h-42c-2.7-0.1-4.8-2.4-4.7-5.1c0.1-2.5,2.1-4.5,4.7-4.7h42c2.7,0.1,4.8,2.4,4.7,5.1
		C135.5,55.9,133.5,57.9,131,58z"/>
	<path class="st3" d="M131,81.9h-42c-2.7-0.1-4.8-2.4-4.7-5.1c0.1-2.5,2.1-4.5,4.7-4.7h42c2.7-0.1,5,1.9,5.1,4.7
		c0.1,2.7-1.9,5-4.7,5.1C131.3,81.9,131.2,81.9,131,81.9z"/>
	<circle class="st2" cx="63.4" cy="211" r="9.5"/>
	<circle class="st2" cx="156.8" cy="211" r="9.5"/>
	<circle class="st2" cx="110.1" cy="211" r="9.5"/>
</g>
<path class="st4" d="M287.8,290.4h-21.3c-2,0-3.6-1.6-3.6-3.6v-7.2h28.5v7.2C291.4,288.8,289.8,290.4,287.8,290.4z"/>
<path class="st5" d="M230.9,237.1h92.5c3.9,0,7.2-3.2,7.2-7.1c0-0.2,0-0.3,0-0.5l-5.7-79.8c-1.1-14.9-13.5-26.4-28.4-26.4h-38.6
	c-14.9,0.1-27.3,11.6-28.4,26.4l-5.7,79.8c-0.3,3.9,2.7,7.3,6.7,7.6C230.6,237,230.8,237.1,230.9,237.1L230.9,237.1z"/>
<path class="st5" d="M326.9,251.3h-99.4c-7.7-0.1-14,6-14.1,13.7c0,0.2,0,0.3,0,0.5c0,7.9,6.4,14.3,14.3,14.3c0.1,0,0.3,0,0.4,0
	h98.3c7.9,0.2,14.5-6,14.7-13.9c0-0.1,0-0.3,0-0.4c0.1-7.7-6-14-13.7-14.2C327.2,251.3,327,251.3,326.9,251.3z"/>
<path class="st6" d="M316.3,290.4h-9.2l-10.7-10.7h-5v5l11.7,11.7c0.7,0.7,1.6,1,2.5,1h10.7c2,0,3.6-1.6,3.6-3.6
	C319.9,291.9,318.3,290.3,316.3,290.4L316.3,290.4z"/>
<path class="st4" d="M216.6,226.4c0,2-1.6,3.6-3.6,3.6l0,0h-21.3c-2,0-3.6-1.6-3.6-3.6l0,0v-7.2c0-2,1.6-3.6,3.6-3.6h21.3
	c2,0,3.6,1.6,3.6,3.6L216.6,226.4z"/>
<path class="st4" d="M366.1,226.4c0,2-1.6,3.6-3.6,3.6l0,0h-21.3c-2,0-3.6-1.6-3.6-3.6l0,0v-7.2c0-2,1.6-3.6,3.6-3.6h21.3
	c2,0,3.6,1.6,3.6,3.6L366.1,226.4z"/>
<circle class="st7" cx="277.1" cy="340.2" r="10.7"/>
<circle class="st7" cx="323.4" cy="340.2" r="10.7"/>
<circle class="st7" cx="230.9" cy="340.2" r="10.7"/>
<circle class="st4" cx="230.9" cy="340.2" r="3.6"/>
<circle class="st4" cx="277.1" cy="340.2" r="3.6"/>
<circle class="st4" cx="323.4" cy="340.2" r="3.6"/>
<rect x="266.4" y="237.1" class="st4" width="21.3" height="14.2"/>
<circle class="st8" cx="262.9" cy="165.9" r="7.1"/>
<circle class="st8" cx="291.3" cy="165.9" r="7.1"/>
<circle class="st8" cx="262.9" cy="194.4" r="7.1"/>
<circle class="st8" cx="291.3" cy="194.4" r="7.1"/>
<path class="st6" d="M348.3,229.9v24.9c0,3.9-3.2,7.2-7.2,7.2h-0.6c0.3,1.1,0.4,2.3,0.4,3.5c0,1.2-0.2,2.4-0.5,3.6h0.7
	c7.8,0,14.2-6.4,14.2-14.2v-24.9H348.3z"/>
<path class="st6" d="M213.3,265.4c0-1.2,0.2-2.4,0.4-3.5h-0.6c-3.9,0-7.2-3.2-7.2-7.2v-24.9h-7.2v24.9c0,7.8,6.4,14.2,14.2,14.2h0.7
	C213.4,267.9,213.3,266.7,213.3,265.4z"/>
<path class="st6" d="M326.9,322.4c0-1.6-1.1-3.1-2.7-3.5l-43.5-10v-18.5h-7.2v18.5L230,319c-1.6,0.4-2.7,1.8-2.7,3.5h-0.1v7.7
	c2.3-0.9,4.8-0.9,7.2,0v-4.9l39.1-9v14c2.3-0.9,4.8-0.9,7.2,0v-13.9l39.1,9v4.9c2.3-0.9,4.8-0.9,7.2,0v-7.7L326.9,322.4z"/>
<rect x="273.6" y="290.4" class="st9" width="7.1" height="7.1"/>
<rect x="266.4" y="237.1" class="st7" width="21.3" height="3.6"/>
<rect x="262.9" y="279.7" class="st7" width="28.5" height="3.6"/>
</svg>
