<svg id="Layer_1" data-name="Layer 1" xmlns="http://www.w3.org/2000/svg" viewBox="0 0 400 380"><defs><style>.cls-1{fill:#464655;}.cls-2{fill:#5b5d6e;}.cls-3{fill:#f0dcbe;}.cls-4{fill:#707487;}.cls-5{fill:#566e7f;}.cls-6{fill:#96bf0f;}.cls-7{fill:#b1c3d0;}.cls-8{fill:#35495c;}.cls-9{fill:#690;}.cls-10{fill:#8eadbe;}</style></defs><title>Artboard 1</title><rect class="cls-1" x="292.9" y="219.83" width="16.12" height="16.82"/><path class="cls-2" d="M311.72,211.42h-21.5v8.41c0,2.32,2.41,4.2,5.37,4.2h10.75c3,0,5.37-1.88,5.37-4.2h0Z"/><path class="cls-3" d="M314,102.09h-26.1c-16.89,0-30.92,10.19-32.17,23.37l-6.83,72.08c-.85,9.27,8.06,17.31,19.91,18q.79,0,1.59,0h61.2c11.87,0,21.52-7.49,21.55-16.78q0-.62-.05-1.24l-6.83-72.08C345,112.25,330.95,102,314,102.09Z"/><path class="cls-2" d="M252.59,249.28h-5.37c-8.9,0-16.11-5.65-16.12-12.61V203c0-2.32,2.41-4.2,5.37-4.2s5.37,1.88,5.37,4.2h0v33.64c0,2.32,2.41,4.2,5.37,4.2h5.37c3,0,5.37,1.88,5.37,4.2S255.56,249.28,252.59,249.28Z"/><path class="cls-2" d="M354.71,249.28h-5.37c-3,0-5.37-1.88-5.37-4.2s2.41-4.2,5.37-4.2h5.37c3,0,5.37-1.88,5.37-4.2V203c0-2.32,2.41-4.2,5.37-4.2s5.37,1.88,5.37,4.2h0v33.64C370.83,243.63,363.61,249.27,354.71,249.28Z"/><rect class="cls-2" x="354.71" y="324.96" width="10.75" height="12.61"/><path class="cls-4" d="M360.09,346h5.37c3,0,5.37-1.88,5.37-4.2v-4.2c0-2.32-2.41-4.2-5.37-4.2h-5.37c-3,0-5.37,1.88-5.37,4.2v4.2C354.71,344.12,357.12,346,360.09,346Z"/><rect class="cls-2" x="236.47" y="324.96" width="10.75" height="12.61"/><rect class="cls-1" x="295.58" y="253.47" width="10.75" height="33.64"/><path class="cls-2" d="M327.84,245.07H274.1l7.55,8.87a11.79,11.79,0,0,0,9,3.75h20.74a11.79,11.79,0,0,0,9-3.75Z"/><path class="cls-3" d="M349.34,249.28H252.61c-3,0-5.37-1.88-5.37-4.2v-8.41c0-2.32,2.41-4.2,5.37-4.2h96.73c3,0,5.37,1.88,5.37,4.2v8.41C354.71,247.4,352.31,249.28,349.34,249.28Z"/><path class="cls-4" d="M354.71,240.87H247.23v4.2c0,2.32,2.41,4.2,5.37,4.2h96.73c3,0,5.37-1.88,5.37-4.2Z"/><path class="cls-4" d="M361.07,320.83l-59.13-8.41a6.83,6.83,0,0,0-1.92,0l-59.13,8.41c-2.91.41-4.85,2.58-4.34,4.86v0c.5,2.13,3,3.61,5.77,3.38h0L301,324.93l58.56,4.23H360c3,0,5.36-1.91,5.34-4.23,0-2-1.86-3.73-4.38-4.1Z"/><path class="cls-2" d="M306.35,316.57H295.6c-3,0-5.37-1.88-5.37-4.2V287.13c0-2.32,2.41-4.2,5.37-4.2h10.75c3,0,5.37,1.88,5.37,4.2v25.23C311.72,314.68,309.31,316.57,306.35,316.57Z"/><path class="cls-4" d="M241.84,346h-5.37c-3,0-5.37-1.88-5.37-4.2v-4.2c0-2.32,2.41-4.2,5.37-4.2h5.37c3,0,5.37,1.88,5.37,4.2v4.2C247.22,344.12,244.81,346,241.84,346Z"/><path class="cls-5" d="M131.79,198.42H110.45a3.58,3.58,0,0,1-3.58-3.58v-7.15h28.49v7.15A3.58,3.58,0,0,1,131.79,198.42Z"/><path class="cls-6" d="M74.88,145.05h92.5a7.15,7.15,0,0,0,7.17-7.14q0-.24,0-.48l-5.7-79.78a28.61,28.61,0,0,0-28.39-26.44H101.86A28.61,28.61,0,0,0,73.47,57.66l-5.7,79.78a7.15,7.15,0,0,0,6.67,7.6l.48,0Z"/><path class="cls-6" d="M170.87,159.29H71.42A13.92,13.92,0,0,0,57.28,173q0,.23,0,.46a14.3,14.3,0,0,0,14.3,14.31H170.3A14.3,14.3,0,0,0,185,173.86q0-.21,0-.41a13.92,13.92,0,0,0-13.68-14.16Z"/><path class="cls-7" d="M160.26,198.42h-9.2l-10.73-10.73h-5v5l11.72,11.72a3.58,3.58,0,0,0,2.52,1h10.73a3.58,3.58,0,0,0,0-7.15Z"/><path class="cls-5" d="M60.64,134.38A3.58,3.58,0,0,1,57.07,138H35.74a3.58,3.58,0,0,1-3.58-3.58h0v-7.15a3.58,3.58,0,0,1,3.58-3.58H57.09a3.58,3.58,0,0,1,3.58,3.58Z"/><path class="cls-5" d="M210.06,134.38a3.58,3.58,0,0,1-3.58,3.58H185.16a3.58,3.58,0,0,1-3.58-3.58h0v-7.15a3.58,3.58,0,0,1,3.58-3.58h21.35a3.58,3.58,0,0,1,3.58,3.58Z"/><circle class="cls-8" cx="121.13" cy="248.22" r="10.67"/><circle class="cls-8" cx="167.36" cy="248.22" r="10.67"/><circle class="cls-8" cx="74.88" cy="248.22" r="10.67"/><circle class="cls-5" cx="74.88" cy="248.22" r="3.55"/><circle class="cls-5" cx="121.13" cy="248.22" r="3.55"/><circle class="cls-5" cx="167.36" cy="248.22" r="3.55"/><rect class="cls-5" x="110.45" y="145.05" width="21.35" height="14.23"/><circle class="cls-9" cx="106.89" cy="73.9" r="7.12"/><circle class="cls-9" cx="135.35" cy="73.9" r="7.12"/><circle class="cls-9" cx="106.89" cy="102.37" r="7.12"/><circle class="cls-9" cx="135.35" cy="102.37" r="7.12"/><path class="cls-7" d="M192.28,137.95v24.9a7.15,7.15,0,0,1-7.15,7.15h-.61a14.52,14.52,0,0,1,.44,3.49,14.89,14.89,0,0,1-.51,3.58h.69a14.3,14.3,0,0,0,14.23-14.23V137.95Z"/><path class="cls-7" d="M57.28,173.45a14.51,14.51,0,0,1,.44-3.49h-.6A7.15,7.15,0,0,1,50,162.8V137.95H42.82v24.9a14.3,14.3,0,0,0,14.23,14.23h.68A14.89,14.89,0,0,1,57.28,173.45Z"/><path class="cls-7" d="M170.86,230.45a3.5,3.5,0,0,0-2.69-3.48l-43.48-10V198.42h-7.15v18.51L74,227a3.58,3.58,0,0,0-2.69,3.47h-.07v7.75a10,10,0,0,1,7.15,0v-4.93l39.13-9v14a10,10,0,0,1,7.15,0V224.24l39.13,9v4.91a10,10,0,0,1,7.15,0v-7.75Z"/><rect class="cls-10" x="117.56" y="198.42" width="7.12" height="7.12"/><rect class="cls-8" x="110.45" y="145.05" width="21.35" height="3.55"/><rect class="cls-8" x="106.89" y="187.74" width="28.46" height="3.55"/></svg>