<svg id="Layer_1" data-name="Layer 1" xmlns="http://www.w3.org/2000/svg" viewBox="0 0 489.7 489.7"><defs><style>.cls-1{fill:#a7a9ac;}</style></defs><title>Artboard 1</title><path class="cls-1" d="M480.7,227.8v34a64.29,64.29,0,0,1-64.1,64.1H302.7a64.29,64.29,0,0,1-64.1-64.1v-34a64.29,64.29,0,0,1,64.1-64.1H416.6A64.29,64.29,0,0,1,480.7,227.8Z"/><path d="M229.5,265.2A69.86,69.86,0,0,0,299.3,335H419.9a69.86,69.86,0,0,0,69.8-69.8V224.5a69.86,69.86,0,0,0-69.8-69.8H299.3a69.86,69.86,0,0,0-69.8,69.8v10.2H185.1a29.7,29.7,0,0,0-29.7,29.7v63.7a15.6,15.6,0,1,1-31.2,0V160.5a32.7,32.7,0,1,0-65.4,0v61.6a12.61,12.61,0,0,1-12.6,12.6H9.1a9.1,9.1,0,0,0,0,18.2H46a30.77,30.77,0,0,0,30.7-30.7V160.6a14.6,14.6,0,1,1,29.2,0V328.1a33.8,33.8,0,1,0,67.6,0V264.4a11.61,11.61,0,0,1,11.6-11.6h44.4Zm69.8-92.5H419.9a51.77,51.77,0,0,1,51.7,51.7v40.7a51.77,51.77,0,0,1-51.7,51.7H299.3a51.77,51.77,0,0,1-51.7-51.7V224.4A51.77,51.77,0,0,1,299.3,172.7Z"/><path d="M291.7,253.9h32.9a9.1,9.1,0,1,0,0-18.2H291.7a9.1,9.1,0,0,0,0,18.2Z"/></svg>