<svg id="Layer_1" data-name="Layer 1" xmlns="http://www.w3.org/2000/svg" viewBox="0 0 400 380"><defs><style>.cls-1{fill:#999;}.cls-2{fill:#96bf0f;}.cls-3{fill:#333;}.cls-4{fill:#690;}.cls-5{fill:#c7cbc7;}.cls-6{fill:#dd342e;}.cls-7{fill:#546a79;}.cls-8{fill:#38454f;}</style></defs><title>Artboard 1chairs2</title><rect class="cls-1" x="94.55" y="146.45" width="30.94" height="9.79" transform="translate(-41.95 260.49) rotate(-89.67)"/><path class="cls-1" d="M173.59,84.69v37.62h-127V84.69H36.83V127.2a4.9,4.9,0,0,0,4.9,4.9H178.49a4.9,4.9,0,0,0,4.9-4.9V84.69Z"/><path class="cls-2" d="M110.1,13.89A39.24,39.24,0,0,0,70.86,53.13V71.29c0,21.67,11,29.55,39.24,29.55s39.24-7.93,39.24-29.55V53.13A39.24,39.24,0,0,0,110.1,13.89Z"/><path class="cls-2" d="M159.43,127.21a13.56,13.56,0,0,1-13.56,13.56H74.34a13.57,13.57,0,1,1,0-27.14h71.52a13.56,13.56,0,0,1,13.56,13.56Z"/><path class="cls-3" d="M46.9,74.32H36.51a5.81,5.81,0,0,0-5.8,5.81v9.45h22V80.14A5.8,5.8,0,0,0,46.9,74.32Z"/><path class="cls-3" d="M183.66,74.32H173.3a5.8,5.8,0,0,0-5.8,5.81v9.45h22V80.14a5.81,5.81,0,0,0-5.79-5.82Z"/><rect class="cls-3" x="102.51" y="161.92" width="15.2" height="26.14"/><path class="cls-1" d="M156.84,183.18H63.37a4.9,4.9,0,0,0-4.9,4.9v18.3a4.9,4.9,0,1,0,9.79.48q0-.24,0-.48V193h37v13.41H115V193h37v13.41a4.9,4.9,0,1,0,9.79.48q0-.24,0-.48V188.07A4.9,4.9,0,0,0,156.84,183.18Z"/><path class="cls-4" d="M131,58h-42a4.9,4.9,0,0,1,0-9.79h42A4.9,4.9,0,0,1,131,58Z"/><path class="cls-4" d="M131,81.88h-42a4.9,4.9,0,0,1,0-9.79h42a4.9,4.9,0,0,1,.48,9.79Z"/><circle class="cls-3" cx="63.37" cy="210.96" r="9.48"/><circle class="cls-3" cx="156.84" cy="210.96" r="9.48"/><circle class="cls-3" cx="110.1" cy="210.96" r="9.48"/><path class="cls-5" d="M283.41,303.76a4,4,0,0,1-4-4s0,0,0-.06V283.63a4,4,0,0,1,8.06,0v16.06a4,4,0,0,1-4,4h0"/><path class="cls-5" d="M223,327.94a4,4,0,0,1-4-4h0v-8.06a4,4,0,0,1,8.06,0v8.06a4,4,0,0,1-4,4h0"/><path class="cls-5" d="M223,319.87a4,4,0,0,1-.9-8l52.35-12.09a4,4,0,1,1,1.81,7.86l-52.35,12.09a4.17,4.17,0,0,1-.91.1"/><path class="cls-5" d="M343.82,327.94a4,4,0,0,1-4-4h0v-8.06a4,4,0,1,1,8.06,0h0v8.06a4,4,0,0,1-4,4h0"/><path class="cls-5" d="M343.82,319.87a4.18,4.18,0,0,1-.91-.1l-52.35-12.09a4,4,0,1,1,1.81-7.86l52.35,12.09a4,4,0,0,1-.9,8"/><path class="cls-5" d="M263.26,327.94a4,4,0,0,1-2.85-6.87L272.5,309a4,4,0,1,1,5.74,5.69h0l-12.13,12.09a4,4,0,0,1-2.85,1.2"/><path class="cls-5" d="M303.54,327.94a4,4,0,0,1-2.85-1.2l-12.09-12.06A4,4,0,1,1,294.3,309h0l12.09,12.09a4,4,0,0,1-2.85,6.87"/><path class="cls-5" d="M219,251.41a16.12,16.12,0,0,1-16.11-16.11V211.13a4,4,0,1,1,8.06,0V235.3a8.06,8.06,0,0,0,8.06,8.06,4,4,0,1,1,0,8.06"/><polygon class="cls-6" points="198.82 211.13 214.93 211.13 214.93 195.02 198.82 195.02 198.82 211.13"/><path class="cls-5" d="M347.85,251.41a4,4,0,0,1,0-8.06,8.06,8.06,0,0,0,8.06-8.06h0V211.13a4,4,0,1,1,8.06,0V235.3a16.12,16.12,0,0,1-16.11,16.11"/><polygon class="cls-6" points="351.87 211.13 367.98 211.13 367.98 195.02 351.87 195.02 351.87 211.13"/><path class="cls-5" d="M283.41,243.3a4,4,0,0,1-4-4V219.2a4,4,0,0,1,8.06,0v20.09a4,4,0,0,1-4,4"/><path class="cls-6" d="M312.64,223.21H254.21a18.37,18.37,0,0,1-18.42-18.32q0-.38,0-.76l2.62-68a18.37,18.37,0,0,1,18.36-17.66H310a18.37,18.37,0,0,1,18.36,17.66l2.62,68a18.37,18.37,0,0,1-17.65,19.06h-.71"/><path class="cls-6" d="M283.39,271.54c-20.13,0-64.44-4-64.44-20.13,0-7.93,8.18-12.09,16.11-12.09h97.61c6.92,0,15.16,4.28,15.16,12.09,0,16.11-44.45,20.13-64.44,20.13"/><polygon class="cls-7" points="275.35 283.63 291.46 283.63 291.46 271.54 275.35 271.54 275.35 283.63"/><polygon class="cls-7" points="275.35 311.83 291.46 311.83 291.46 299.74 275.35 299.74 275.35 311.83"/><path class="cls-8" d="M237.08,338A14.09,14.09,0,1,1,223,323.91,14.09,14.09,0,0,1,237.08,338"/><path class="cls-8" d="M359.93,338a14.09,14.09,0,1,1-14.09-14.09h0A14.09,14.09,0,0,1,359.93,338"/><path class="cls-8" d="M275.35,338a14.09,14.09,0,1,1-14.09-14.09h0A14.09,14.09,0,0,1,275.35,338"/><path class="cls-8" d="M319.65,338a14.09,14.09,0,1,1-14.09-14.09h0A14.09,14.09,0,0,1,319.65,338"/></svg>