<svg id="Layer_1" data-name="Layer 1" xmlns="http://www.w3.org/2000/svg" viewBox="0 0 350.16 350.16"><defs><style>.cls-1{fill:#360;}.cls-2{fill:#96bf0f;}</style></defs><title>Artboard 1</title><g id="_Group_" data-name="&lt;Group&gt;"><path id="_Path_" data-name="&lt;Path&gt;" class="cls-1" d="M285.74,240.54H172.62l-.41,80.15h95.24a32.09,32.09,0,0,0,27.83-16.12l13.88-24.2-.75-.43Z"/><path id="_Path_2" data-name="&lt;Path&gt;" class="cls-1" d="M121.06,142.46,51.77,102.17,4.27,184.79a32.09,32.09,0,0,0,0,32.06L18,240.54H64.69Z"/><path id="_Path_3" data-name="&lt;Path&gt;" class="cls-1" d="M175.21,48.26s56.15,97.67,56.15,97.67l69.7-39.6L253.59,23.76A32.08,32.08,0,0,0,225.77,7.66H198.1v.77Z"/><path id="_Path_4" data-name="&lt;Path&gt;" class="cls-2" d="M147.16,218.74h-.41a8.82,8.82,0,0,0-8.82,8.82v13H18l39.66,68.55A23.25,23.25,0,0,0,77.81,320.7h60.12v13a8.82,8.82,0,0,0,8.82,8.82h0a8.82,8.82,0,0,0,6.23-2.58l53.27-53.27a8.82,8.82,0,0,0,0-12.47l-33.65-33.64-19.21-19.22A8.81,8.81,0,0,0,147.16,218.74Z"/><path id="_Path_5" data-name="&lt;Path&gt;" class="cls-2" d="M152.65,131.26l.2-.35a8.82,8.82,0,0,0-3.25-12l-11.26-6.47L175.2,48.26,198.1,8.43V7.66H124.21A32.08,32.08,0,0,0,96.28,24L68.85,72.44,57.59,66a8.82,8.82,0,0,0-12,3.25h0a8.82,8.82,0,0,0-.87,6.69l7.09,26.24,12.55,46.48a8.82,8.82,0,0,0,10.81,6.21l72.18-19.48A8.81,8.81,0,0,0,152.65,131.26Z"/><path id="_Path_6" data-name="&lt;Path&gt;" class="cls-2" d="M318.13,136.06l11.27-6.48a8.82,8.82,0,0,0,3.25-12h0a8.82,8.82,0,0,0-5.34-4.11L254.57,93.78A8.82,8.82,0,0,0,243.76,100l-19.48,72.17a8.82,8.82,0,0,0,.87,6.69l.21.36a8.82,8.82,0,0,0,12,3.25L248.64,176l37.1,64.54L308.4,280l.75.43,36.76-64.08a32.09,32.09,0,0,0,0-32Z"/></g></svg>